
      <svg data-logo="logo" xmlns="http://www.w3.org/2000/svg" viewBox="0 0 265 43">
        <g id="logogram" transform="translate(0, 1) rotate(0) "><path d="M17.3991 3.08704L20.0562 0.429993L40.0562 20.43L20.0562 40.43L17.3991 37.7729L34.742 20.43L17.3991 3.08704Z" fill="#D41C1C"/><path d="M13.9305 6.55563L16.5876 3.89858L33.119 20.43L16.5876 36.9614L13.9305 34.3044L27.8049 20.43L13.9305 6.55563Z" fill="#D41C1C"/><path d="M0.0561537 20.43L13.119 7.36717L26.1818 20.43L13.119 33.4928L10.4619 30.8357L20.8677 20.43L13.119 12.6813L2.7132 23.087L0.0561537 20.43Z" fill="#D41C1C"/><path d="M13.119 14.3044L10.4619 16.9614L13.9305 20.43L6.99333 27.3672L9.65037 30.0242L19.2446 20.43L13.119 14.3044Z" fill="#D41C1C"/><path d="M6.1818 26.5556L3.52474 23.8986L9.62258 17.8007L12.2796 20.4578L6.1818 26.5556Z" fill="#D41C1C"/></g>
        <g id="logotype" transform="translate(47, 8)"><path fill="#ffffff" d="M13.49 27L8.31 27L8.31 1.54L16.31 1.54L20.44 13.23Q20.70 14.05 21.03 15.34Q21.36 16.64 21.71 18.15Q22.05 19.65 22.35 21.07Q22.65 22.49 22.83 23.53L22.83 23.53L21.83 23.53Q22.01 22.51 22.31 21.10Q22.61 19.69 22.95 18.18Q23.29 16.68 23.63 15.36Q23.96 14.05 24.22 13.23L24.22 13.23L28.29 1.54L36.32 1.54L36.32 27L31.07 27L31.07 14.99Q31.07 14.17 31.10 12.92Q31.14 11.67 31.17 10.23Q31.21 8.78 31.24 7.32Q31.28 5.86 31.29 4.56L31.29 4.56L31.62 4.56Q31.29 5.98 30.90 7.49Q30.51 9.00 30.11 10.42Q29.70 11.84 29.34 13.03Q28.99 14.22 28.73 14.99L28.73 14.99L24.51 27L20.12 27L15.83 14.99Q15.57 14.22 15.21 13.05Q14.85 11.88 14.45 10.46Q14.05 9.04 13.64 7.53Q13.23 6.01 12.85 4.56L12.85 4.56L13.26 4.56Q13.28 5.79 13.31 7.24Q13.35 8.70 13.39 10.16Q13.43 11.62 13.46 12.88Q13.49 14.13 13.49 14.99L13.49 14.99L13.49 27ZM43.85 27.38L43.85 27.38Q42.04 27.38 40.60 26.74Q39.15 26.09 38.32 24.82Q37.49 23.55 37.49 21.65L37.49 21.65Q37.49 20.06 38.08 18.98Q38.67 17.91 39.69 17.26Q40.71 16.61 42.00 16.27Q43.29 15.93 44.71 15.79L44.71 15.79Q46.36 15.62 47.38 15.47Q48.40 15.33 48.87 15.01Q49.34 14.70 49.34 14.08L49.34 14.08L49.34 13.99Q49.34 13.17 49.00 12.61Q48.65 12.05 47.99 11.75Q47.32 11.45 46.35 11.45L46.35 11.45Q45.36 11.45 44.62 11.75Q43.89 12.05 43.42 12.54Q42.96 13.04 42.74 13.65L42.74 13.65L38.04 12.87Q38.54 11.21 39.68 10.05Q40.83 8.88 42.53 8.27Q44.23 7.65 46.35 7.65L46.35 7.65Q47.90 7.65 49.35 8.02Q50.81 8.39 51.96 9.16Q53.11 9.93 53.79 11.16Q54.46 12.39 54.46 14.13L54.46 14.13L54.46 27L49.61 27L49.61 24.35L49.44 24.35Q48.98 25.24 48.21 25.91Q47.44 26.59 46.36 26.98Q45.27 27.38 43.85 27.38ZM45.30 23.77L45.30 23.77Q46.52 23.77 47.43 23.29Q48.35 22.81 48.86 21.99Q49.37 21.17 49.37 20.16L49.37 20.16L49.37 18.10Q49.15 18.27 48.69 18.40Q48.23 18.54 47.66 18.64Q47.10 18.75 46.55 18.83Q46.01 18.92 45.58 18.97L45.58 18.97Q44.64 19.10 43.92 19.41Q43.20 19.72 42.81 20.22Q42.42 20.73 42.42 21.51L42.42 21.51Q42.42 22.25 42.79 22.75Q43.17 23.26 43.81 23.51Q44.45 23.77 45.30 23.77ZM61.69 27L56.56 27L56.56 7.89L61.52 7.89L61.52 11.23L61.73 11.23Q62.26 9.45 63.49 8.54Q64.73 7.64 66.34 7.64L66.34 7.64Q66.73 7.64 67.19 7.68Q67.64 7.72 68.00 7.81L68.00 7.81L68.00 12.39Q67.66 12.27 67.01 12.20Q66.36 12.13 65.78 12.13L65.78 12.13Q64.61 12.13 63.67 12.64Q62.73 13.14 62.21 14.04Q61.69 14.93 61.69 16.13L61.69 16.13L61.69 27ZM76.68 17.48L73.19 21.41L73.19 15.24L73.96 15.24L80.22 7.89L86.15 7.89L77.89 17.48L76.68 17.48ZM73.67 27L68.54 27L68.54 1.54L73.67 1.54L73.67 27ZM86.50 27L80.47 27L74.73 18.63L78.16 14.99L86.50 27ZM95.20 27.38L95.20 27.38Q92.28 27.38 90.16 26.18Q88.04 24.98 86.90 22.78Q85.77 20.57 85.77 17.55L85.77 17.55Q85.77 14.59 86.90 12.37Q88.02 10.15 90.09 8.90Q92.16 7.65 94.94 7.65L94.94 7.65Q96.82 7.65 98.45 8.25Q100.07 8.85 101.30 10.06Q102.53 11.26 103.22 13.07Q103.92 14.88 103.92 17.34L103.92 17.34L103.92 18.78L87.87 18.78L87.87 15.57L101.40 15.57L99.01 16.42Q99.01 14.93 98.56 13.83Q98.11 12.73 97.21 12.12Q96.31 11.52 94.98 11.52L94.98 11.52Q93.66 11.52 92.73 12.13Q91.80 12.75 91.32 13.80Q90.84 14.85 90.84 16.20L90.84 16.20L90.84 18.47Q90.84 20.13 91.40 21.26Q91.95 22.39 92.95 22.95Q93.95 23.51 95.29 23.51L95.29 23.51Q96.19 23.51 96.93 23.26Q97.66 23.00 98.18 22.50Q98.70 21.99 98.98 21.26L98.98 21.26L103.63 22.13Q103.16 23.70 102.02 24.89Q100.87 26.08 99.16 26.73Q97.44 27.38 95.20 27.38ZM103.30 7.89L114.63 7.89L114.63 11.81L103.30 11.81L103.30 7.89ZM105.93 21.86L105.93 3.35L111.06 3.35L111.06 21.41Q111.06 22.32 111.46 22.75Q111.86 23.19 112.80 23.19L112.80 23.19Q113.09 23.19 113.62 23.11Q114.15 23.04 114.42 22.97L114.42 22.97L115.16 26.81Q114.31 27.07 113.46 27.17Q112.61 27.27 111.84 27.27L111.84 27.27Q108.97 27.27 107.45 25.87Q105.93 24.47 105.93 21.86L105.93 21.86ZM127.00 27L121.82 27L121.82 1.54L129.82 1.54L133.95 13.23Q134.21 14.05 134.54 15.34Q134.88 16.64 135.22 18.15Q135.56 19.65 135.86 21.07Q136.16 22.49 136.35 23.53L136.35 23.53L135.34 23.53Q135.53 22.51 135.83 21.10Q136.12 19.69 136.47 18.18Q136.81 16.68 137.14 15.36Q137.47 14.05 137.73 13.23L137.73 13.23L141.80 1.54L149.83 1.54L149.83 27L144.58 27L144.58 14.99Q144.58 14.17 144.62 12.92Q144.65 11.67 144.69 10.23Q144.72 8.78 144.76 7.32Q144.79 5.86 144.81 4.56L144.81 4.56L145.13 4.56Q144.81 5.98 144.41 7.49Q144.02 9.00 143.62 10.42Q143.22 11.84 142.86 13.03Q142.50 14.22 142.24 14.99L142.24 14.99L138.02 27L133.63 27L129.34 14.99Q129.08 14.22 128.72 13.05Q128.37 11.88 127.96 10.46Q127.56 9.04 127.15 7.53Q126.74 6.01 126.37 4.56L126.37 4.56L126.78 4.56Q126.79 5.79 126.83 7.24Q126.86 8.70 126.90 10.16Q126.95 11.62 126.97 12.88Q127.00 14.13 127.00 14.99L127.00 14.99L127.00 27ZM157.37 27.38L157.37 27.38Q155.55 27.38 154.11 26.74Q152.67 26.09 151.84 24.82Q151.01 23.55 151.01 21.65L151.01 21.65Q151.01 20.06 151.60 18.98Q152.19 17.91 153.20 17.26Q154.22 16.61 155.51 16.27Q156.80 15.93 158.22 15.79L158.22 15.79Q159.88 15.62 160.89 15.47Q161.91 15.33 162.38 15.01Q162.85 14.70 162.85 14.08L162.85 14.08L162.85 13.99Q162.85 13.17 162.51 12.61Q162.17 12.05 161.50 11.75Q160.83 11.45 159.86 11.45L159.86 11.45Q158.87 11.45 158.13 11.75Q157.40 12.05 156.94 12.54Q156.48 13.04 156.25 13.65L156.25 13.65L151.55 12.87Q152.05 11.21 153.20 10.05Q154.34 8.88 156.04 8.27Q157.74 7.65 159.86 7.65L159.86 7.65Q161.42 7.65 162.87 8.02Q164.32 8.39 165.47 9.16Q166.63 9.93 167.30 11.16Q167.98 12.39 167.98 14.13L167.98 14.13L167.98 27L163.12 27L163.12 24.35L162.95 24.35Q162.49 25.24 161.72 25.91Q160.95 26.59 159.87 26.98Q158.78 27.38 157.37 27.38ZM158.82 23.77L158.82 23.77Q160.03 23.77 160.95 23.29Q161.86 22.81 162.37 21.99Q162.89 21.17 162.89 20.16L162.89 20.16L162.89 18.10Q162.66 18.27 162.20 18.40Q161.74 18.54 161.18 18.64Q160.61 18.75 160.07 18.83Q159.52 18.92 159.09 18.97L159.09 18.97Q158.15 19.10 157.43 19.41Q156.72 19.72 156.32 20.22Q155.93 20.73 155.93 21.51L155.93 21.51Q155.93 22.25 156.31 22.75Q156.68 23.26 157.32 23.51Q157.96 23.77 158.82 23.77ZM168.23 7.89L179.56 7.89L179.56 11.81L168.23 11.81L168.23 7.89ZM170.86 21.86L170.86 3.35L175.99 3.35L175.99 21.41Q175.99 22.32 176.39 22.75Q176.79 23.19 177.73 23.19L177.73 23.19Q178.02 23.19 178.55 23.11Q179.08 23.04 179.36 22.97L179.36 22.97L180.09 26.81Q179.24 27.07 178.39 27.17Q177.55 27.27 176.78 27.27L176.78 27.27Q173.91 27.27 172.39 25.87Q170.86 24.47 170.86 21.86L170.86 21.86ZM185.75 27L180.62 27L180.62 7.89L185.58 7.89L185.58 11.23L185.78 11.23Q186.31 9.45 187.55 8.54Q188.79 7.64 190.40 7.64L190.40 7.64Q190.79 7.64 191.24 7.68Q191.69 7.72 192.05 7.81L192.05 7.81L192.05 12.39Q191.71 12.27 191.06 12.20Q190.41 12.13 189.83 12.13L189.83 12.13Q188.67 12.13 187.73 12.64Q186.79 13.14 186.27 14.04Q185.75 14.93 185.75 16.13L185.75 16.13L185.75 27ZM197.73 27L192.60 27L192.60 7.89L197.73 7.89L197.73 27ZM195.16 5.40L195.16 5.40Q194.00 5.40 193.18 4.63Q192.36 3.86 192.36 2.77L192.36 2.77Q192.36 1.67 193.18 0.90Q194.00 0.13 195.16 0.13L195.16 0.13Q196.32 0.13 197.15 0.90Q197.98 1.66 197.98 2.77L197.98 2.77Q197.98 3.86 197.15 4.63Q196.32 5.40 195.16 5.40ZM203.77 27L198.34 27L205.74 15.19L205.72 19.19L198.71 7.89L204.25 7.89L205.98 10.92Q206.80 12.39 207.46 13.83Q208.11 15.28 208.80 16.64L208.80 16.64L206.85 16.64Q207.55 15.29 208.20 13.84Q208.85 12.39 209.70 10.92L209.70 10.92L211.50 7.89L216.93 7.89L209.79 19.24L209.79 15.29L217.21 27L211.70 27L209.58 23.39Q208.75 21.94 208.07 20.49Q207.40 19.04 206.70 17.70L206.70 17.70L208.66 17.70Q207.99 19.04 207.35 20.49Q206.71 21.94 205.89 23.39L205.89 23.39L203.77 27Z"/></g>
        
      </svg>
    